<svg width="49" height="42" viewBox="0 0 49 42" fill="none" xmlns="http://www.w3.org/2000/svg">
<path fill-rule="evenodd" clip-rule="evenodd" d="M10.7857 34.8498L10.6768 34.4002C8.65265 26.0462 7.76886 17.3376 7.98127 8.29704L7.99503 7.71114L8.57114 7.60354C18.3439 5.77838 28.422 5.74887 38.8148 7.60249L39.3678 7.70112L39.4087 8.26136C40.0317 16.7897 39.8091 25.382 38.7174 34.0308L38.6539 34.5334L38.1599 34.6452C29.2688 36.6589 20.2897 36.7192 11.2397 34.9391L10.7857 34.8498ZM13.1006 32.445C20.8465 33.8102 28.5131 33.7599 36.1075 32.2282C36.9606 24.7986 37.1581 17.4149 36.7167 10.0805C27.8076 8.65814 19.1619 8.67314 10.7609 10.0547C10.6993 17.7948 11.472 25.2613 13.1006 32.445Z" fill="white"/>
<path fill-rule="evenodd" clip-rule="evenodd" d="M6.0023 40.088L5.85496 39.4595C3.1178 27.7841 1.92267 15.6131 2.2099 2.97805L2.22852 2.1592L3.00757 2.00882C16.2229 -0.54201 29.8514 -0.583246 43.9052 2.00735L44.653 2.14519L44.7084 2.92818C45.5508 14.8473 45.2499 26.8558 43.7735 38.9434L43.6877 39.6457L43.0197 39.802C30.9965 42.6163 18.8543 42.7005 6.61622 40.2128L6.0023 40.088ZM8.77132 37.0884C19.2459 38.9963 30.3359 38.9261 40.6057 36.7854C41.7592 26.4018 42.0264 15.3598 41.4295 5.10916C29.3819 3.12134 16.9677 3.1423 5.60732 5.07317C5.52403 15.8907 6.56896 27.0485 8.77132 37.0884Z" fill="white"/>
<path d="M16.7275 12.7328C16.029 12.7939 15.5042 13.4133 15.5411 14.136L16.1362 26.2716C16.1694 26.9828 16.7386 27.5448 17.4297 27.5448H17.4962C18.2391 27.5448 18.8304 26.8986 18.7897 26.1301L18.1245 13.9945C18.0838 13.2413 17.4482 12.6716 16.7238 12.7328H16.7275Z" fill="white"/>
<path d="M31.6791 12.7328C31.0209 12.7939 30.477 13.4133 30.4493 14.136L29.9955 26.2716C29.9678 26.9828 30.4562 27.5448 31.1006 27.5448H31.1629C31.8592 27.5448 32.4689 26.8986 32.4932 26.1301L32.8846 13.9945C32.9089 13.2413 32.3615 12.6716 31.6756 12.7328H31.6791Z" fill="white"/>
<path d="M3.8513 26.9124H2.72614C1.60583 26.9124 0.677146 26.0451 0.597565 24.9284L0.00494208 16.4577C-0.078168 15.2218 0.897538 14.1738 2.13343 14.1738H2.66702C2.86624 18.4829 3.25982 22.7295 3.8513 26.9124Z" fill="white"/>
<path d="M44.4165 27.0026L45.5402 26.945C46.659 26.8877 47.5421 25.974 47.5645 24.8547L47.723 16.3648C47.7428 15.1263 46.7147 14.1295 45.4805 14.1928L44.9476 14.2201C44.969 18.5337 44.7932 22.7948 44.4165 27.0026Z" fill="white"/>
</svg>
