<svg width="43" height="39" viewBox="0 0 43 39" fill="none" xmlns="http://www.w3.org/2000/svg">
<path fill-rule="evenodd" clip-rule="evenodd" d="M7.19174 34.5253C4.96621 24.8156 3.9548 14.7053 4.11165 4.20749C15.1817 2.22559 26.5816 2.19842 38.339 4.22869C38.9827 14.1723 38.7211 24.1798 37.5341 34.2579L30.6747 36.2988H15.0838L7.19174 34.5253ZM14.9317 37.6696L6.05557 35.675H6.05214C3.58123 25.2465 2.50513 14.369 2.76216 3.06311C14.6746 0.787538 26.9572 0.749841 39.6339 3.06654C40.3947 13.7418 40.1206 24.4891 38.7874 35.3152L30.8744 37.6696H14.9317Z" fill="white"/>
<path fill-rule="evenodd" clip-rule="evenodd" d="M21.7413 35.8601H21.7447C22.394 35.8601 23.0412 35.8565 23.6864 35.8494C27.0037 35.8131 30.2653 35.6843 33.4568 35.47C34.8437 35.3769 36.2174 35.2676 37.5766 35.1427C37.9525 35.1082 38.3272 35.0724 38.7008 35.0355C38.74 35.0317 38.7792 35.0278 38.8183 35.0239L38.8156 35.0493C38.8062 35.1373 38.7965 35.2277 38.784 35.3152L30.871 37.6696H14.9283L6.05214 35.675C6.02952 35.5789 6.00796 35.4818 5.98628 35.3841C5.96854 35.3042 5.95072 35.224 5.93222 35.1438C6.01034 35.151 6.08852 35.1581 6.16674 35.1652C6.56501 35.2011 6.96449 35.2356 7.36515 35.2688C8.85923 35.3927 10.3698 35.4976 11.8954 35.5831C14.4933 35.7286 17.135 35.8174 19.8137 35.8463C20.4519 35.8532 21.0921 35.8566 21.7344 35.8567H21.7378H21.7413L21.7378 35.8601H21.7413Z" fill="white"/>
<path fill-rule="evenodd" clip-rule="evenodd" d="M37.5341 34.2579C38.7211 24.1798 38.9827 14.1723 38.339 4.22869C26.5816 2.19842 15.1817 2.22559 4.11165 4.20749C3.9548 14.7053 4.96621 24.8156 7.19174 34.5253L11.8999 35.5833C12.1001 35.5945 12.3005 35.6054 12.5011 35.6159C14.9036 35.742 17.3429 35.8197 19.8137 35.8463C20.4073 35.8527 21.0028 35.8562 21.5999 35.8566C21.6448 35.8567 21.6896 35.8567 21.7344 35.8567H21.7413L21.7378 35.8601H21.7447C21.7895 35.8601 21.8344 35.8601 21.8793 35.86C22.4834 35.8596 23.0858 35.856 23.6864 35.8494C26.8494 35.8148 29.9617 35.6961 33.0109 35.4994C33.1596 35.4898 33.3083 35.48 33.4568 35.47L33.4612 35.4697L37.5341 34.2579ZM33.4433 35.3707L37.4425 34.1808C38.6191 24.1574 38.8797 14.2039 38.2443 4.31384C26.5542 2.30394 15.2188 2.33037 4.21044 4.29143C4.06052 14.7302 5.06715 24.7845 7.27515 34.4416L11.9138 35.4839C14.5061 35.6289 17.142 35.7175 19.8148 35.7463C20.4526 35.7532 21.0925 35.7566 21.7344 35.7567H21.9825L21.9793 35.7599C22.5495 35.7592 23.1182 35.7557 23.6853 35.7494C26.9985 35.7132 30.2559 35.5846 33.4433 35.3707ZM5.9309 35.1582C5.92987 35.1537 5.92884 35.1493 5.92781 35.1449C5.91977 35.1102 5.91173 35.0755 5.90372 35.0408C3.53818 24.8057 2.51034 14.14 2.76216 3.06311C14.6746 0.787538 26.9572 0.749841 39.6339 3.06654C40.3855 13.6125 40.1271 24.2287 38.8354 34.9217C38.8313 34.9559 38.8272 34.9902 38.823 35.0244C38.8222 35.0314 38.8213 35.0384 38.8204 35.0454L38.8199 35.0498C38.8169 35.0749 38.8138 35.1 38.8107 35.1251C38.803 35.1885 38.7952 35.2518 38.7874 35.3152L38.7863 35.3155L30.8744 37.6696H14.9283L6.05557 35.675H6.05214C6.02922 35.5783 6.00642 35.4815 5.98373 35.3847C5.9729 35.3385 5.9621 35.2922 5.95133 35.246C5.94451 35.2167 5.9377 35.1875 5.9309 35.1582ZM30.8889 37.7696L38.8787 35.3924L38.8867 35.3274C40.2206 24.495 40.4949 13.7412 39.7337 3.05943L39.7282 2.9821L39.6519 2.96816C26.9635 0.64933 14.6684 0.686913 2.7434 2.96488L2.66402 2.98005L2.66219 3.06084C2.40498 14.3746 3.48181 25.2606 5.95483 35.6981L5.96924 35.7589L14.9172 37.7696H30.8889Z" fill="white"/>
<path fill-rule="evenodd" clip-rule="evenodd" d="M37.5341 34.2579C38.7211 24.1798 38.9827 14.1723 38.339 4.22869C26.5816 2.19842 15.1817 2.22559 4.11165 4.20749C3.9548 14.7053 4.96621 24.8156 7.19174 34.5253L11.8999 35.5833C12.5677 35.6207 13.2386 35.6544 13.9121 35.6842C15.8571 35.7704 17.8251 35.8249 19.8137 35.8463C20.2938 35.8515 20.7752 35.8548 21.2576 35.8561C21.4165 35.8565 21.5753 35.8567 21.7344 35.8567H21.7413L21.7378 35.8601H21.7447C21.9042 35.8601 22.0638 35.8599 22.2232 35.8595C22.7121 35.8581 23.1998 35.8548 23.6864 35.8494C26.4795 35.8188 29.2333 35.7227 31.9388 35.5652C32.4466 35.5356 32.9524 35.5039 33.4568 35.47L33.4612 35.4697L37.5341 34.2579ZM33.4003 35.1304L37.2201 33.9938C38.3718 24.1031 38.6301 14.281 38.0144 4.52076C26.4877 2.55999 15.3091 2.58463 4.45056 4.49546C4.31728 14.7907 5.31228 24.709 7.47794 34.2384L11.9476 35.2428C14.5297 35.3869 17.1553 35.4749 19.8176 35.5036C20.4545 35.5105 21.0936 35.514 21.7346 35.514H22.5684L22.5669 35.5155C22.9395 35.5138 23.3115 35.5108 23.6828 35.5068C26.9821 35.4706 30.226 35.3429 33.4003 35.1304ZM5.84664 34.7919C3.52179 24.6328 2.51238 14.0502 2.76216 3.06311C14.6746 0.787538 26.9572 0.749841 39.6339 3.06654C40.3797 13.5313 40.1312 24.0653 38.8653 34.6749C38.8514 34.7914 38.8371 34.9079 38.823 35.0244C38.8222 35.0314 38.8213 35.0384 38.8204 35.0454L38.8199 35.0498C38.8092 35.1382 38.7983 35.2267 38.7874 35.3152L30.8744 37.6696H14.9283L6.05557 35.675H6.05214C6.03793 35.6151 6.02395 35.5551 6.00982 35.4951C6.00117 35.4583 5.99235 35.4215 5.98373 35.3847C5.96605 35.3092 5.94844 35.2337 5.9309 35.1582C5.92987 35.1537 5.92884 35.1493 5.92781 35.1449C5.90052 35.0272 5.87358 34.9096 5.84664 34.7919ZM30.9244 38.0123L39.1004 35.5797L39.1278 35.3571C40.4636 24.5092 40.7384 13.7398 39.976 3.04221L39.9571 2.77721L39.6957 2.72944C26.9789 0.405418 14.6536 0.442723 2.69804 2.72652L2.42602 2.77848L2.41973 3.05535C2.16208 14.3881 3.24069 25.2949 5.71885 35.7541L5.76823 35.9625L14.8904 38.0123H30.9244Z" fill="white"/>
<path fill-rule="evenodd" clip-rule="evenodd" d="M37.6259 34.335L33.4792 35.5688L33.4637 35.5698C32.959 35.6037 32.4527 35.6355 31.9446 35.665C29.2375 35.8227 26.4824 35.9188 23.6877 35.9495C23.2008 35.9548 22.7127 35.9581 22.2234 35.9595C22.064 35.9599 21.9045 35.9601 21.7449 35.9601H21.4967L21.5003 35.9565C21.4193 35.9564 21.3383 35.9563 21.2573 35.9561C20.7747 35.9548 20.2932 35.9515 19.8128 35.9463C17.8231 35.9249 15.8538 35.8703 13.9077 35.7841C13.2338 35.7543 12.5627 35.7206 11.8945 35.6832L11.8863 35.6827L7.10853 34.6091L7.09445 34.5477C4.867 24.8296 3.85488 14.7112 4.01185 4.20603L4.01308 4.12361L4.09421 4.10908C15.1761 2.12507 26.5877 2.098 38.3562 4.13018L38.4339 4.14359L38.4389 4.22226C39.0831 14.1719 38.8213 24.1855 37.6336 34.2696L37.6259 34.335ZM21.5999 35.8566C21.6448 35.8567 21.6896 35.8567 21.7344 35.8567H21.7413L21.7378 35.8601H21.7447C21.7895 35.8601 21.8344 35.8601 21.8793 35.86C21.9939 35.86 22.1086 35.8598 22.2232 35.8595C22.7121 35.8581 23.1998 35.8548 23.6864 35.8494C26.4795 35.8188 29.2333 35.7227 31.9388 35.5652C32.4466 35.5356 32.9524 35.5039 33.4568 35.47L33.4612 35.4697L37.5341 34.2579C38.7211 24.1798 38.9827 14.1723 38.339 4.22869C26.5816 2.19842 15.1817 2.22559 4.11165 4.20749C3.9548 14.7053 4.96621 24.8156 7.19174 34.5253L11.8999 35.5833C12.5677 35.6207 13.2386 35.6544 13.9121 35.6842C15.8571 35.7704 17.8251 35.8249 19.8137 35.8463C20.2938 35.8515 20.7752 35.8548 21.2576 35.8561C21.3717 35.8564 21.4857 35.8565 21.5999 35.8566ZM22.7089 35.5148C23.0341 35.513 23.3587 35.5103 23.6828 35.5068C26.9821 35.4706 30.226 35.3429 33.4003 35.1304L37.2201 33.9938C38.3718 24.1031 38.6301 14.281 38.0144 4.52076C26.4877 2.55999 15.3091 2.58463 4.45056 4.49546C4.31728 14.7907 5.31228 24.709 7.47794 34.2384L11.9476 35.2428C14.5297 35.3869 17.1553 35.4749 19.8176 35.5036C20.4545 35.5105 21.0936 35.514 21.7346 35.514H22.5684L22.5669 35.5155L22.5684 35.5155L22.5698 35.5155C22.6162 35.5153 22.6626 35.515 22.7089 35.5148ZM22.8094 35.4142C23.1006 35.4124 23.3914 35.41 23.6817 35.4068C26.9753 35.3707 30.2136 35.2433 33.3825 35.0313L37.1284 33.9168C38.2698 24.0808 38.5271 14.3127 37.9196 4.6061C26.4603 2.66545 15.3463 2.68935 4.54951 4.57962C4.42299 14.8158 5.41318 24.6779 7.56148 34.1547L11.9614 35.1434C14.5394 35.2871 17.1607 35.375 19.8187 35.4036C20.4552 35.4105 21.0939 35.414 21.7346 35.414L22.8094 35.4142ZM38.823 35.0244C38.8371 34.9079 38.8514 34.7914 38.8653 34.6749C40.1312 24.0653 40.3797 13.5313 39.6339 3.06654C26.9572 0.749841 14.6746 0.787538 2.76216 3.06311C2.51238 14.0502 3.52179 24.6328 5.84664 34.7919C5.87358 34.9096 5.90052 35.0272 5.92781 35.1449L5.9309 35.1582L5.98373 35.3847L6.00982 35.4951L6.05214 35.675H6.05557L14.9283 37.6696H30.8744L38.7874 35.3152L38.823 35.0244ZM38.7239 35.0124C38.7381 34.8959 38.7521 34.7795 38.766 34.663C40.028 24.0858 40.2785 13.584 39.5399 3.15103C26.93 0.85567 14.7117 0.892584 2.8605 3.14623C2.61767 14.0968 3.62695 24.644 5.94412 34.7696C5.97104 34.8872 5.99814 35.0048 6.02541 35.1223L6.02849 35.1356L6.08128 35.3619L6.10717 35.4722L6.13528 35.5912L14.9395 37.5696H30.86L38.6963 35.2381L38.7239 35.0124ZM30.939 38.1123H14.8793L5.68533 36.0463L5.62154 35.7771C3.14127 25.3091 2.06193 14.3937 2.31975 3.05308L2.32788 2.69542L2.67928 2.6283C14.6474 0.342098 26.9852 0.304908 39.7137 2.63107L40.0513 2.69277L40.0757 3.0351C40.8386 13.7391 40.5636 24.5151 39.227 35.3693L39.1916 35.6569L30.939 38.1123ZM5.76823 35.9625L5.71885 35.7541C3.24069 25.2949 2.16208 14.3881 2.41973 3.05535L2.42602 2.77848L2.69804 2.72652C14.6536 0.442723 26.9789 0.405418 39.6957 2.72944L39.9571 2.77721L39.976 3.04221C40.7384 13.7398 40.4636 24.5092 39.1278 35.3571L39.1004 35.5797L30.9244 38.0123H14.8904L5.76823 35.9625Z" fill="white"/>
<path fill-rule="evenodd" clip-rule="evenodd" d="M9.51193 31.9691C18.3079 33.7029 27.027 33.6432 35.6591 31.684C36.7256 23.2171 36.9429 14.8065 36.3344 6.45894C26.2079 4.64886 16.3956 4.6787 6.88418 6.45894C6.6769 15.3005 7.53944 23.8105 9.51193 31.9691ZM8.20115 7.56965C8.09257 15.6182 8.88843 23.3754 10.6157 30.8291C18.6368 32.3043 26.5793 32.2511 34.4456 30.5917C35.3612 22.8729 35.5637 15.2032 35.0716 7.58685C25.8422 6.04883 16.8912 6.06864 8.20115 7.56965Z" fill="white"/>
<path fill-rule="evenodd" clip-rule="evenodd" d="M9.42978 32.0548L9.41473 31.9926C7.44006 23.8249 6.57674 15.3062 6.7842 6.4566L6.7861 6.37556L6.86578 6.36065C16.3895 4.5781 26.214 4.54838 36.352 6.3605L36.4285 6.37417L36.4342 6.45167C37.0431 14.8059 36.8256 23.223 35.7583 31.6965L35.7496 31.766L35.6813 31.7815C27.0349 33.744 18.3017 33.8036 9.49259 32.0672L9.42978 32.0548ZM10.6983 30.7426C18.6613 32.199 26.5457 32.1463 34.3548 30.5086C35.2593 22.8467 35.4606 15.2333 34.9769 7.67249C25.8148 6.15418 16.9284 6.17326 8.30005 7.65409C8.19844 15.6424 8.98917 23.3425 10.6983 30.7426ZM8.20115 7.56965C8.09257 15.6182 8.88843 23.3754 10.6157 30.8291C18.6368 32.3043 26.5793 32.2511 34.4456 30.5917C35.3612 22.8729 35.5637 15.2032 35.0716 7.58685C25.8422 6.04883 16.8912 6.06864 8.20115 7.56965ZM35.6591 31.684C27.027 33.6432 18.3079 33.7029 9.51193 31.9691C7.53944 23.8105 6.6769 15.3005 6.88418 6.45894C16.3956 4.6787 26.2079 4.64886 36.3344 6.45894C36.9429 14.8065 36.7256 23.2171 35.6591 31.684Z" fill="white"/>
<path fill-rule="evenodd" clip-rule="evenodd" d="M9.23053 32.2629L9.17897 32.0497C7.19897 23.86 6.33378 15.3201 6.54171 6.45094L6.54822 6.17322L6.82127 6.12212C16.3749 4.33397 26.229 4.30452 36.3949 6.12161L36.657 6.16847L36.6764 6.43406C37.2865 14.8043 37.0686 23.2376 35.9993 31.7268L35.9693 31.9651L35.7351 32.0182C27.0543 33.9885 18.2867 34.0481 9.4458 32.3054L9.23053 32.2629ZM10.8991 30.5324C18.721 31.9436 26.4644 31.8922 34.1342 30.3067C35.0121 22.7829 35.2105 15.3063 34.747 7.88063C25.7485 6.40979 17.019 6.42714 8.54049 7.85941C8.45552 15.7014 9.23371 23.2626 10.8991 30.5324ZM8.20115 7.56965C8.09257 15.6182 8.88843 23.3754 10.6157 30.8291C18.6368 32.3043 26.5793 32.2511 34.4456 30.5917C35.3612 22.8729 35.5637 15.2032 35.0716 7.58685C25.8422 6.04883 16.8912 6.06864 8.20115 7.56965ZM35.6591 31.684C27.027 33.6432 18.3079 33.7029 9.51193 31.9691C7.53944 23.8105 6.6769 15.3005 6.88418 6.45894C16.3956 4.6787 26.2079 4.64886 36.3344 6.45894C36.9429 14.8065 36.7256 23.2171 35.6591 31.684Z" fill="white"/>
<path fill-rule="evenodd" clip-rule="evenodd" d="M9.14837 32.3487L9.08177 32.0732C7.09959 23.8745 6.23362 15.3258 6.44173 6.4486L6.45014 6.08984L6.80287 6.02382C16.3689 4.23337 26.2352 4.20403 36.4125 6.02317L36.7511 6.0837L36.7761 6.42679C37.3867 14.8037 37.1686 23.2436 36.0985 31.7393L36.0597 32.0471L35.7572 32.1157C27.0622 34.0893 18.2805 34.1488 9.42646 32.4035L9.14837 32.3487ZM8.10242 7.48528L8.18426 7.47114C16.8857 5.96815 25.8481 5.94844 35.0882 7.48825L35.1664 7.50128L35.1715 7.58044C35.664 15.2029 35.4614 22.8787 34.5451 30.6035L34.5366 30.6748L34.4664 30.6896C26.5868 32.3518 18.6311 32.405 10.5977 30.9275L10.5332 30.9156L10.5184 30.8517C8.78922 23.3897 7.99261 15.6244 8.10129 7.56833L8.10242 7.48528ZM35.9693 31.9651L35.9993 31.7268C37.0686 23.2376 37.2865 14.8043 36.6764 6.43406L36.657 6.16847L36.3949 6.12161C26.229 4.30452 16.3749 4.33397 6.82127 6.12212L6.54822 6.17322L6.54171 6.45094C6.33378 15.3201 7.19897 23.86 9.17897 32.0497L9.23053 32.2629L9.4458 32.3054C18.2867 34.0481 27.0543 33.9885 35.7351 32.0182L35.9693 31.9651ZM34.0433 30.2234C34.9102 22.7565 35.1075 15.3364 34.6522 7.96649C25.7211 6.51505 17.0563 6.53169 8.63961 7.94413C8.56137 15.7257 9.33437 23.2296 10.9819 30.4457C18.7455 31.8384 26.4308 31.7875 34.0433 30.2234ZM10.8991 30.5324C18.721 31.9436 26.4644 31.8922 34.1342 30.3067C35.0121 22.7829 35.2105 15.3063 34.747 7.88063C25.7485 6.40979 17.019 6.42714 8.54049 7.85941C8.45552 15.7014 9.23371 23.2626 10.8991 30.5324ZM35.5688 31.602C26.9937 33.5382 18.3326 33.5974 9.59425 31.8834C7.64061 23.7777 6.783 15.3243 6.98242 6.54239C16.4327 4.78364 26.1808 4.75458 36.2405 6.54377C36.8398 14.8364 36.6236 23.1913 35.5688 31.602ZM36.3344 6.45894C26.2079 4.64886 16.3956 4.6787 6.88418 6.45894C6.6769 15.3005 7.53944 23.8105 9.51193 31.9691C18.3079 33.7029 27.027 33.6432 35.6591 31.684C36.7256 23.2171 36.9429 14.8065 36.3344 6.45894ZM10.6157 30.8291C8.88843 23.3754 8.09257 15.6182 8.20115 7.56965C16.8912 6.06864 25.8422 6.04883 35.0716 7.58685C35.5637 15.2032 35.3612 22.8729 34.4456 30.5917C26.5793 32.2511 18.6368 32.3043 10.6157 30.8291Z" fill="white"/>
<path d="M14.6881 11.8163C14.0404 11.8711 13.5537 12.4263 13.588 13.074L14.1398 23.9515C14.1706 24.5889 14.6984 25.0927 15.3392 25.0927H15.4009C16.0898 25.0927 16.6381 24.5136 16.6004 23.8247L15.9835 12.9472C15.9458 12.2721 15.3564 11.7615 14.6847 11.8163H14.6881Z" fill="white"/>
<path fill-rule="evenodd" clip-rule="evenodd" d="M16.6004 23.8247C16.6381 24.5136 16.0898 25.0927 15.4009 25.0927H15.3392C14.6984 25.0927 14.1706 24.5889 14.1398 23.9515L13.588 13.074C13.5539 12.4288 14.0366 11.8754 14.6806 11.8169L14.6847 11.8163V11.8163H14.6881H14.6847H14.6881V11.8163L14.6923 11.8157C15.3608 11.7653 15.946 12.2746 15.9835 12.9472L16.6004 23.8247ZM14.6765 11.7169C13.977 11.7778 13.4511 12.3782 13.4881 13.0792ZM16.0834 12.9416C16.0425 12.2101 15.404 11.6575 14.6765 11.7169ZM16.0834 12.9416L16.7002 23.819C16.7411 24.5651 16.1472 25.1927 15.4009 25.1927H15.3392C14.6451 25.1927 14.0734 24.6472 14.0399 23.9565M13.4881 13.0792L14.0399 23.9565Z" fill="white"/>
<path d="M29.0447 11.8163C28.3936 11.8711 27.8555 12.4263 27.8281 13.074L27.3791 23.9515C27.3517 24.5889 27.8349 25.0927 28.4724 25.0927H28.5341C29.2229 25.0927 29.8261 24.5135 29.8501 23.8247L30.2373 12.9472C30.2613 12.2721 29.7198 11.7615 29.0413 11.8163H29.0447Z" fill="white"/>
<path fill-rule="evenodd" clip-rule="evenodd" d="M30.2373 12.9472L29.8501 23.8247C29.8261 24.5135 29.2229 25.0927 28.5341 25.0927H28.4724C27.8349 25.0927 27.3517 24.5889 27.3791 23.9515L27.8281 13.074C27.8554 12.4288 28.3895 11.8753 29.0373 11.8169L29.0413 11.8163V11.8163H29.0447H29.0413H29.0447V11.8163L29.0489 11.8157C29.7239 11.7653 30.2612 12.2746 30.2373 12.9472ZM29.0332 11.7169C28.3341 11.7774 27.7577 12.372 27.7282 13.0698L27.2792 23.9472V23.9472M29.0332 11.7169C29.7702 11.6573 30.3634 12.2147 30.3372 12.9508L29.95 23.8282" fill="white"/>
<path d="M3.6523 24.7324H2.58528C1.52285 24.7324 0.642157 23.9099 0.566688 22.851L0.00468672 14.8179C-0.074129 13.6459 0.851161 12.652 2.02319 12.652H2.52922C2.71814 16.7385 3.09139 20.7656 3.6523 24.7324Z" fill="white"/>
<path fill-rule="evenodd" clip-rule="evenodd" d="M3.6523 24.7324C3.64759 24.6991 3.64289 24.6658 3.6382 24.6324C3.08513 20.6979 2.71655 16.7042 2.52922 12.652H2.02319C0.851161 12.652 -0.074129 13.6459 0.00468672 14.8179L0.566688 22.851C0.642157 23.9099 1.52285 24.7324 2.58528 24.7324H3.6523ZM0.666435 22.8439C0.738184 23.8506 1.57545 24.6324 2.58528 24.6324H3.53722C2.98912 20.7302 2.62237 16.7697 2.43377 12.752H2.02319C0.909424 12.752 0.0295745 13.6965 0.104452 14.8111V14.8111L0.666435 22.8439Z" fill="white"/>
<path d="M39.5101 24.512L40.6483 24.4327C41.7815 24.3538 42.6598 23.4111 42.6617 22.2759L42.6646 13.6656C42.6617 12.4096 41.6009 11.4182 40.3507 11.5053L39.811 11.5428C39.9129 15.9157 39.8138 20.2391 39.5101 24.512Z" fill="white"/>
<path fill-rule="evenodd" clip-rule="evenodd" d="M39.5101 24.512C39.5125 24.4784 39.5149 24.4448 39.5172 24.4112C39.8154 20.1711 39.9121 15.8814 39.811 11.5428L40.3507 11.5053C41.6009 11.4182 42.6617 12.4096 42.6646 13.6656L42.6617 22.2759C42.6598 23.4111 41.7815 24.3538 40.6483 24.4327L39.5101 24.512ZM42.5617 22.2758C42.5599 23.3586 41.7221 24.2577 40.6413 24.333L39.618 24.4042C39.9134 20.1966 40.0106 15.9402 39.9131 11.636L40.3577 11.605C41.5497 11.522 42.5617 12.4673 42.5646 13.6657V13.6657L42.5617 22.2758Z" fill="white"/>
</svg>
