<svg width="44" height="38" viewBox="0 0 44 38" fill="none" xmlns="http://www.w3.org/2000/svg">
<path fill-rule="evenodd" clip-rule="evenodd" d="M7.19179 33.5253C4.96626 23.8156 3.95485 13.7052 4.1117 3.20744C15.1817 1.22554 26.5817 1.19837 38.339 3.22864C38.9827 13.1722 38.7212 23.1797 37.5341 33.2579L30.6748 35.2987H15.0838L7.19179 33.5253ZM14.9317 36.6695L6.05562 34.675H6.05219C3.58128 24.2464 2.50518 13.3689 2.76221 2.06306C14.6747 -0.212509 26.9573 -0.250207 39.634 2.06649C40.3948 12.7418 40.1206 23.4891 38.7875 34.3152L30.8744 36.6695H14.9317Z" fill="white"/>
<path fill-rule="evenodd" clip-rule="evenodd" d="M21.7413 34.8601C21.7424 34.8601 21.7436 34.8601 21.7447 34.8601C22.394 34.86 23.0413 34.8565 23.6864 34.8494C27.0038 34.8131 30.2654 34.6843 33.4568 34.47C34.8437 34.3768 36.2174 34.2675 37.5766 34.1427C37.9525 34.1081 38.3273 34.0724 38.7009 34.0355C38.7401 34.0316 38.7792 34.0277 38.8184 34.0239L38.8156 34.0493C38.8062 34.1373 38.7966 34.2276 38.7841 34.3152L30.871 36.6695H14.9283L6.05219 34.675C6.02957 34.5789 6.00801 34.4817 5.98633 34.3841C5.96858 34.3042 5.95077 34.224 5.93226 34.1438C6.01039 34.151 6.08857 34.1581 6.16679 34.1651C6.56506 34.201 6.96453 34.2356 7.3652 34.2688C8.85928 34.3926 10.3698 34.4976 11.8954 34.583C14.4934 34.7285 17.135 34.8174 19.8138 34.8463C20.4519 34.8531 21.0922 34.8566 21.7344 34.8566C21.7356 34.8566 21.7367 34.8566 21.7379 34.8566C21.739 34.8566 21.7402 34.8566 21.7413 34.8566L21.7379 34.8601C21.739 34.8601 21.7402 34.8601 21.7413 34.8601Z" fill="white"/>
<path fill-rule="evenodd" clip-rule="evenodd" d="M37.5343 33.2579C38.7214 23.1798 38.9829 13.1723 38.3392 3.22869C26.5818 1.19843 15.1819 1.2256 4.11188 3.2075C3.95503 13.7053 4.96644 23.8157 7.19197 33.5253L11.9002 34.5833C12.568 34.6207 13.2387 34.6543 13.9121 34.6842C15.8572 34.7704 17.8253 34.8249 19.814 34.8463C20.294 34.8515 20.7753 34.8547 21.2577 34.856C21.4165 34.8565 21.5755 34.8567 21.7346 34.8567H21.7415L21.7381 34.8601H21.7449C21.9045 34.8601 22.0639 34.8599 22.2232 34.8594C22.7122 34.8581 23.2 34.8548 23.6866 34.8494C26.4797 34.8188 29.2333 34.7227 31.9388 34.5652C32.4466 34.5356 32.9527 34.5039 33.457 34.47L33.4614 34.4697L37.5343 33.2579ZM33.4003 34.1303L37.2202 32.9938C38.3718 23.1031 38.6301 13.2809 38.0145 3.52074C26.4878 1.55997 15.3091 1.58461 4.4506 3.49543C4.31733 13.7907 5.31232 23.7089 7.47799 33.2384L11.9476 34.2427C14.5298 34.3869 17.1553 34.4749 19.8176 34.5036C20.4546 34.5105 21.0936 34.514 21.7346 34.514H22.5684L22.5669 34.5155C22.9396 34.5137 23.3116 34.5108 23.6829 34.5068C26.9821 34.4706 30.226 34.3429 33.4003 34.1303ZM5.84668 33.7919C3.52183 23.6328 2.5126 13.0502 2.76239 2.06312C14.6749 -0.212454 26.9575 -0.250152 39.6342 2.06654C40.38 12.5313 40.1312 23.0653 38.8653 33.6749C38.8514 33.7914 38.8374 33.9079 38.8232 34.0244C38.8224 34.0314 38.8215 34.0384 38.8207 34.0454C38.8205 34.0469 38.8203 34.0483 38.8201 34.0498C38.8094 34.1382 38.7986 34.2267 38.7877 34.3152L30.8746 36.6696H14.9285L6.05579 34.6758L6.05237 34.675C6.03815 34.6151 6.02399 34.5551 6.00987 34.495C6.00121 34.4583 5.99258 34.4215 5.98396 34.3847C5.96628 34.3092 5.94867 34.2337 5.93113 34.1582C5.9301 34.1537 5.92907 34.1493 5.92804 34.1449C5.90074 34.0273 5.87363 33.9096 5.84668 33.7919ZM30.9245 37.0123L39.1004 34.5797L39.1278 34.3571C40.4636 23.5092 40.7384 12.7397 39.976 2.04218L39.9571 1.77718L39.6958 1.72942C26.9789 -0.594606 14.6536 -0.557301 2.69808 1.7265L2.42606 1.77846L2.41977 2.05533C2.16213 13.3881 3.24074 24.2949 5.71889 34.7541L5.76827 34.9625L14.8905 37.0123H30.9245Z" fill="white"/>
<path fill-rule="evenodd" clip-rule="evenodd" d="M9.51209 30.9691C18.3081 32.7029 27.0271 32.6432 35.6593 30.684C36.7258 22.2171 36.9431 13.8065 36.3346 5.45894C26.208 3.64886 16.3957 3.6787 6.88433 5.45894C6.67705 14.3005 7.5396 22.8105 9.51209 30.9691ZM8.2013 6.56965C8.09272 14.6182 8.88858 22.3754 10.6158 29.8291C18.6369 31.3043 26.5794 31.2511 34.4458 29.5917C35.3614 21.8729 35.5638 14.2032 35.0718 6.58685C25.8423 5.04883 16.8913 5.06864 8.2013 6.56965Z" fill="white"/>
<path fill-rule="evenodd" clip-rule="evenodd" d="M9.23047 31.2629L9.17891 31.0496C7.19892 22.86 6.33373 14.3201 6.54165 5.4509L6.54816 5.17319L6.82122 5.12208C16.3749 3.33393 26.229 3.30448 36.3948 5.12158L36.657 5.16843L36.6763 5.43402C37.2865 13.8043 37.0685 22.2375 35.9992 30.7268L35.9692 30.965L35.7351 31.0182C27.0542 32.9885 18.2867 33.048 9.44574 31.3053L9.23047 31.2629ZM10.8991 29.5323C18.7209 30.9436 26.4643 30.8922 34.1342 29.3067C35.012 21.7828 35.2105 14.3062 34.747 6.88059C25.7485 5.40975 17.019 5.4271 8.54044 6.85937C8.45546 14.7013 9.23365 22.2625 10.8991 29.5323ZM8.20123 6.56964C8.09265 14.6182 8.88852 22.3754 10.6158 29.8291C18.6369 31.3043 26.5794 31.2511 34.4457 29.5917C35.3613 21.8729 35.5638 14.2032 35.0717 6.58685C25.8423 5.04882 16.8913 5.06863 8.20123 6.56964ZM35.6592 30.684C27.0271 32.6432 18.308 32.7029 9.51202 30.9691C7.53953 22.8105 6.67699 14.3005 6.88426 5.45894C16.3957 3.67869 26.208 3.64886 36.3345 5.45894C36.943 13.8065 36.7257 22.2171 35.6592 30.684Z" fill="white"/>
<path d="M14.6882 10.8162C14.0405 10.8711 13.5539 11.4262 13.5881 12.074L14.1399 22.9515C14.1707 23.5889 14.6985 24.0927 15.3394 24.0927H15.401C16.0899 24.0927 16.6382 23.5135 16.6005 22.8247L15.9836 11.9472C15.9459 11.272 15.3565 10.7614 14.6848 10.8162H14.6882Z" fill="white"/>
<path d="M29.0448 10.8162C28.3937 10.8711 27.8556 11.4262 27.8282 12.074L27.3793 22.9515C27.3519 23.5889 27.8351 24.0927 28.4725 24.0927H28.5342C29.223 24.0927 29.8262 23.5135 29.8502 22.8247L30.2375 11.9472C30.2614 11.272 29.72 10.7614 29.0414 10.8162H29.0448Z" fill="white"/>
<path d="M3.6523 23.7324H2.58528C1.52285 23.7324 0.642157 22.9099 0.566688 21.851L0.00468672 13.8179C-0.074129 12.6459 0.851161 11.652 2.02319 11.652H2.52922C2.71814 15.7385 3.09139 19.7656 3.6523 23.7324Z" fill="white"/>
<path d="M39.5101 23.5119L40.6483 23.4327C41.7815 23.3538 42.6599 22.411 42.6617 21.2759L42.6646 12.6656C42.6617 11.4096 41.6009 10.4182 40.3507 10.5052L39.811 10.5428C39.9129 14.9157 39.8139 19.239 39.5101 23.5119Z" fill="white"/>
</svg>
