<svg width="134" height="116" viewBox="0 0 134 116" fill="none" xmlns="http://www.w3.org/2000/svg">
<path fill-rule="evenodd" clip-rule="evenodd" d="M29.8458 96.2143L29.5443 94.97C23.9431 71.8531 21.4975 47.7549 22.0853 22.738L22.1234 21.1167L23.7176 20.819C50.7604 15.7684 78.6485 15.6868 107.407 20.816L108.937 21.089L109.051 22.6393C110.775 46.2387 110.159 70.0152 107.138 93.948L106.962 95.3385L105.595 95.6481C80.9918 101.22 56.145 101.387 31.102 96.4614L29.8458 96.2143ZM36.2515 89.5597C57.6858 93.3374 78.9005 93.1982 99.9157 88.9598C102.276 68.4007 102.823 47.9688 101.601 27.673C76.9482 23.7372 53.024 23.7787 29.777 27.6018C29.6066 49.0201 31.7448 69.6811 36.2515 89.5597Z" fill="white"/>
<path fill-rule="evenodd" clip-rule="evenodd" d="M16.6096 110.709L16.2019 108.97C8.62766 76.6622 5.32053 42.9827 6.11536 8.01937L6.16687 5.75346L8.32264 5.33735C44.8919 -1.72126 82.6042 -1.83537 121.494 5.33327L123.563 5.71471L123.716 7.88138C126.047 40.8637 125.215 74.0935 121.129 107.542L120.892 109.485L119.043 109.918C85.773 117.705 52.1734 117.939 18.3084 111.055L16.6096 110.709ZM23.272 103.409C52.2569 108.688 84.945 108.494 113.363 102.57C116.555 73.8372 117.295 41.2818 115.643 12.9165C82.305 7.41589 45.9529 7.47388 14.5166 12.817C14.2861 42.7509 17.1777 75.6266 23.272 103.409Z" fill="white"/>
<path d="M46.2879 35.0125C44.355 35.1817 42.9028 36.8957 43.0051 38.8954L44.6516 72.4768C44.7437 74.4447 46.3186 76 48.231 76H48.4151C50.4707 76 52.107 74.2119 51.9945 72.0853L50.1537 38.5039C50.0412 36.4196 48.2822 34.8432 46.2777 35.0125H46.2879Z" fill="white"/>
<path d="M87.6619 35.0125C85.8406 35.1817 84.3356 36.8957 84.2589 38.8954L83.0031 72.4768C82.9264 74.4447 84.2781 76 86.0611 76H86.2336C88.1604 76 89.8475 74.2119 89.9146 72.0853L90.9979 38.5039C91.065 36.4196 89.5504 34.8432 87.6523 35.0125H87.6619Z" fill="white"/>
<path d="M10.6572 74.25H7.5437C4.44361 74.25 1.87378 71.85 1.65357 68.76L0.0136756 45.3199C-0.216305 41.9 2.48365 39 5.90357 39H7.38013C7.9314 50.9241 9.02051 62.675 10.6572 74.25Z" fill="white"/>
<path d="M122.909 74.4995L126.018 74.3403C129.114 74.1817 131.558 71.6533 131.62 68.5561L132.058 45.0629C132.113 41.6356 129.268 38.8775 125.853 39.0525L124.378 39.128C124.438 51.0647 123.951 62.856 122.909 74.4995Z" fill="white"/>
</svg>
