<svg width="354" height="88" viewBox="0 0 354 88" fill="none" xmlns="http://www.w3.org/2000/svg">
<path d="M109.858 53.1176V38.4117H103.781V31.8235H109.858V24.2941L117.646 22.5294V31.8823H126.083V38.4117H117.646V51.5294C117.646 52.9412 117.941 53.9412 118.531 54.4706C119.121 55.0588 120.183 55.2941 121.717 55.2941C122.425 55.2941 123.133 55.2353 123.782 55.1764C124.431 55.0588 125.139 54.8823 125.906 54.647V61C125.08 61.2941 124.077 61.4706 122.897 61.647C121.717 61.8235 120.714 61.8823 119.888 61.8823C116.584 61.8823 114.106 61.1176 112.395 59.647C110.684 58.1764 109.858 56 109.858 53.1176Z" fill="white"/>
<path d="M129.977 61.4706V31.8235H137.765V35.0588C138.709 33.7647 139.889 32.8235 141.187 32.1176C142.544 31.4706 144.019 31.1176 145.671 31.1176C146.438 31.1765 147.087 31.2353 147.559 31.2941C148.09 31.4118 148.503 31.5294 148.916 31.7647V38.5882C148.326 38.2941 147.736 38.1176 147.028 38C146.32 37.8823 145.612 37.8235 144.904 37.8235C143.37 37.8235 142.013 38.1765 140.715 38.9412C139.417 39.7059 138.414 40.8235 137.706 42.2353V61.4118H129.977V61.4706Z" fill="white"/>
<path d="M157.058 28.2941C155.819 28.2941 154.816 27.8823 153.931 27C153.046 26.1176 152.633 25.0588 152.633 23.8823C152.633 22.6471 153.046 21.6471 153.931 20.7647C154.816 19.8823 155.878 19.4706 157.058 19.4706C158.297 19.4706 159.3 19.8823 160.185 20.7647C161.07 21.6471 161.483 22.7059 161.483 23.8823C161.483 25.1176 161.07 26.1176 160.185 27C159.359 27.8823 158.297 28.2941 157.058 28.2941ZM161.011 31.8235V61.4706H153.223V31.8235H161.011Z" fill="white"/>
<path d="M174.699 31.8235V49.0588C174.699 50.9412 175.23 52.4706 176.41 53.5882C177.531 54.7059 179.006 55.2941 180.894 55.2941C182.251 55.2941 183.431 55.0588 184.434 54.5294C185.496 54 186.322 53.2941 187.03 52.3529V31.8235H194.818V61.4706H187.03V59.0588C185.909 60 184.611 60.7647 183.195 61.2353C181.779 61.7647 180.245 62 178.652 62C175.23 62 172.398 60.8823 170.215 58.647C168.032 56.4117 166.911 53.5882 166.911 50.1765V31.8235H174.699Z" fill="white"/>
<path d="M200.895 61.4706V31.8235H208.683V34.0588C209.745 33.1765 210.925 32.4706 212.223 32C213.521 31.5294 214.937 31.2941 216.471 31.2941C218.359 31.2941 220.07 31.7059 221.604 32.4706C223.138 33.2353 224.436 34.3529 225.38 35.7647C226.56 34.3529 227.976 33.2353 229.628 32.4706C231.28 31.7059 233.168 31.3529 235.174 31.3529C238.478 31.3529 241.192 32.4706 243.316 34.647C245.44 36.8235 246.502 39.647 246.502 43.1176V61.5294H238.714V44.1764C238.714 42.2941 238.183 40.8235 237.18 39.7059C236.177 38.5882 234.82 38 233.109 38C231.929 38 230.867 38.2353 229.864 38.7647C228.92 39.2941 228.094 40 227.386 40.9412C227.445 41.2941 227.445 41.647 227.504 41.9412C227.563 42.2941 227.563 42.647 227.563 43V61.4117H219.775V44.1764C219.775 42.2941 219.244 40.8235 218.241 39.7059C217.238 38.5882 215.881 38 214.17 38C212.99 38 211.928 38.2353 211.043 38.7059C210.158 39.1765 209.332 39.8235 208.624 40.7059V61.5294H200.895V61.4706Z" fill="white"/>
<path d="M252.579 73.3529V31.8235H260.249V34.2941C261.429 33.3529 262.727 32.6471 264.202 32.1765C265.618 31.7059 267.152 31.4706 268.686 31.4706C270.751 31.4706 272.757 31.8823 274.586 32.6471C276.415 33.4706 278.008 34.5294 279.424 35.8823C280.781 37.2353 281.843 38.8823 282.669 40.7059C283.436 42.5882 283.849 44.5294 283.849 46.6471C283.849 48.7647 283.436 50.7647 282.669 52.5882C281.843 54.4706 280.781 56.0588 279.424 57.4118C278.067 58.7647 276.415 59.8235 274.527 60.647C272.639 61.4706 270.633 61.8235 268.509 61.8235C267.093 61.8235 265.677 61.647 264.261 61.2353C262.845 60.8235 261.606 60.2353 260.426 59.5294V73.3529H252.579ZM267.447 38.0588C266.031 38.0588 264.733 38.2941 263.494 38.7647C262.255 39.2353 261.252 39.9412 260.367 40.8235V52.4706C261.193 53.2941 262.255 53.9412 263.494 54.4706C264.733 54.9412 266.031 55.2353 267.447 55.2353C269.866 55.2353 271.931 54.4118 273.583 52.7647C275.235 51.1176 276.12 49.0588 276.12 46.6471C276.12 44.2353 275.294 42.1765 273.583 40.5294C271.931 38.8823 269.866 38.0588 267.447 38.0588Z" fill="white"/>
<path d="M288.628 61.4706V21.647L296.416 19.9412V34.1765C297.537 33.2353 298.835 32.5294 300.192 32C301.608 31.5294 303.083 31.2353 304.735 31.2353C308.157 31.2353 310.989 32.3529 313.172 34.5294C315.355 36.7059 316.476 39.5294 316.476 43V61.4117H308.688V44.1765C308.688 42.2941 308.098 40.8235 306.977 39.7059C305.856 38.5882 304.381 38 302.493 38C301.195 38 300.015 38.2353 299.012 38.7647C297.95 39.2941 297.124 40 296.416 40.9412V61.4706H288.628Z" fill="white"/>
<path d="M87.851 71.2941V39.8824L60.947 71.2941H87.851Z" fill="white"/>
<path d="M77.408 16.0588H32.391V68.7059L77.408 16.0588Z" fill="white"/>
</svg>
